<svg aria-hidden="true" style="position: absolute; width: 0; height: 0; overflow: hidden;" version="1.1" xmlns="http://www.w3.org/2000/svg" xmlns:xlink="http://www.w3.org/1999/xlink">
<defs>
<symbol id="icon-ep_arrow-left" viewBox="0 0 37 32">
<path fill="#fff" style="fill: var(--color1, #fff); stroke: var(--color2, #2c2c2c)" stroke="#2c2c2c" stroke-linejoin="miter" stroke-linecap="butt" stroke-miterlimit="4" stroke-width="0.8889" d="M12.231 12.686v0c-0.033-0.031-0.059-0.069-0.076-0.11v0c-0.018-0.041-0.027-0.086-0.027-0.131s0.009-0.090 0.027-0.131v0c0.018-0.041 0.044-0.079 0.076-0.11v-0l8.669-8.26c0.062-0.059 0.144-0.092 0.23-0.092 0.084 0 0.165 0.032 0.227 0.089l0.005 0.005-0 0 0.008 0.008c0.027 0.025 0.048 0.056 0.062 0.090s0.022 0.070 0.022 0.107-0.007 0.073-0.022 0.107c-0.015 0.034-0.036 0.064-0.062 0.090l-0 0-8.501 8.096 8.502 8.1c0.027 0.025 0.048 0.056 0.062 0.090s0.022 0.070 0.022 0.107c0 0.037-0.007 0.073-0.022 0.107s-0.036 0.064-0.062 0.090l-0-0-0.008 0.008-0.005 0.005c-0.062 0.057-0.143 0.089-0.227 0.089-0.086 0-0.168-0.033-0.23-0.092l-0-0-8.669-8.26z"></path>
</symbol>
<symbol id="icon-burger_menu" viewBox="0 0 32 32">
<path d="M2.666 8c0-0.354 0.14-0.693 0.391-0.943s0.589-0.391 0.943-0.391h24c0.354 0 0.693 0.14 0.943 0.391s0.39 0.589 0.39 0.943c0 0.354-0.14 0.693-0.39 0.943s-0.589 0.391-0.943 0.391h-24c-0.354 0-0.693-0.14-0.943-0.391s-0.391-0.589-0.391-0.943zM2.666 16.043c0-0.354 0.14-0.693 0.391-0.943s0.589-0.39 0.943-0.39h24c0.354 0 0.693 0.14 0.943 0.39s0.39 0.589 0.39 0.943c0 0.354-0.14 0.693-0.39 0.943s-0.589 0.39-0.943 0.39h-24c-0.354 0-0.693-0.14-0.943-0.39s-0.391-0.589-0.391-0.943zM4 22.752c-0.354 0-0.693 0.141-0.943 0.39s-0.391 0.589-0.391 0.943 0.14 0.693 0.391 0.943c0.25 0.25 0.589 0.39 0.943 0.39h24c0.354 0 0.693-0.14 0.943-0.39s0.39-0.589 0.39-0.943c0-0.354-0.14-0.693-0.39-0.943s-0.589-0.39-0.943-0.39h-24z"></path>
</symbol>
<symbol id="icon-arrow-right" viewBox="0 0 34 32">
<path d="M21.931 15.709c0.353 0.353 0.353 0.924 0 1.277l-9.206 9.206c-0.353 0.353-0.924 0.353-1.277 0l-0.426-0.426c-0.353-0.353-0.353-0.924 0-1.277l8.142-8.142-8.142-8.142c-0.353-0.353-0.353-0.924 0-1.277l0.426-0.426c0.353-0.353 0.924-0.353 1.277 0l9.206 9.206z"></path>
</symbol>
<symbol id="icon-ep_arrow-right" viewBox="0 0 37 32">
<path stroke-linejoin="miter" stroke-linecap="butt" stroke-miterlimit="4" stroke-width="0.8889" d="M25.102 12.203v0c0.033 0.031 0.059 0.069 0.076 0.11v0c0.018 0.041 0.027 0.086 0.027 0.131s-0.009 0.090-0.027 0.131v0c-0.018 0.041-0.044 0.079-0.076 0.11v0l-8.669 8.26c-0.062 0.059-0.144 0.092-0.23 0.092-0.084 0-0.165-0.032-0.227-0.089l-0.005-0.005 0-0-0.008-0.008c-0.027-0.025-0.048-0.056-0.062-0.090s-0.022-0.070-0.022-0.107 0.007-0.073 0.022-0.107c0.015-0.034 0.036-0.064 0.062-0.090l0-0 8.501-8.096-8.502-8.1c-0.027-0.025-0.048-0.056-0.062-0.090s-0.022-0.070-0.022-0.107 0.007-0.073 0.022-0.107c0.015-0.034 0.036-0.064 0.062-0.090l0 0 0.008-0.008 0.005-0.005c0.062-0.057 0.143-0.089 0.227-0.089 0.086 0 0.168 0.033 0.23 0.092l0 0 8.669 8.26z"></path>
</symbol>
</defs>
</svg>
